<svg xmlns="http://www.w3.org/2000/svg" xmlns:xlink="http://www.w3.org/1999/xlink">
    <symbol id="folder" viewBox="0 0 512 512">
        <path fill="#509804"
              d="M394.667,256c-64.698,0-117.333,52.635-117.333,117.333s52.635,117.333,117.333,117.333S512,438.031,512,373.333
				S459.365,256,394.667,256z M437.333,384h-32v32c0,5.896-4.771,10.667-10.667,10.667S384,421.896,384,416v-32h-32
				c-5.896,0-10.667-4.771-10.667-10.667c0-5.896,4.771-10.667,10.667-10.667h32v-32c0-5.896,4.771-10.667,10.667-10.667
				s10.667,4.771,10.667,10.667v32h32c5.896,0,10.667,4.771,10.667,10.667C448,379.229,443.229,384,437.333,384z"/>
        <path fill="#F9D468"
              d="M256,373.333c0-76.458,62.208-138.667,138.667-138.667c20.563,0,40.552,4.552,59.417,13.531
				c3.323,1.563,7.198,1.333,10.281-0.615c3.094-1.958,4.969-5.365,4.969-9.021V106.667c0-23.531-19.135-42.667-42.667-42.667
				h-198.25l-39.542-39.542c-2-2-4.708-3.125-7.542-3.125H42.667C19.135,21.333,0,40.469,0,64v298.667
				c0,23.531,19.135,42.667,42.667,42.667h204.365c3.094,0,6.031-1.344,8.063-3.677c2.021-2.333,2.938-5.438,2.5-8.5
				C256.51,385.573,256,379.271,256,373.333z"/>
    </symbol>
    <symbol id="cancel" viewBox="0 0 512 512">
        <path fill="#D24922"
              d="M256 8C119 8 8 119 8 256s111 248 248 248 248-111 248-248S393 8 256 8zm121.6 313.1c4.7 4.7 4.7 12.3 0 17L338 377.6c-4.7 4.7-12.3 4.7-17 0L256 312l-65.1 65.6c-4.7 4.7-12.3 4.7-17 0L134.4 338c-4.7-4.7-4.7-12.3 0-17l65.6-65-65.6-65.1c-4.7-4.7-4.7-12.3 0-17l39.6-39.6c4.7-4.7 12.3-4.7 17 0l65 65.7 65.1-65.6c4.7-4.7 12.3-4.7 17 0l39.6 39.6c4.7 4.7 4.7 12.3 0 17L312 256l65.6 65.1z"/>
    </symbol>
    <symbol id="list" viewBox="0 0 512 512">
        <path fill="#107FC4"
              d="M16 132h416c8.837 0 16-7.163 16-16V76c0-8.837-7.163-16-16-16H16C7.163 60 0 67.163 0 76v40c0 8.837 7.163 16 16 16zm0 160h416c8.837 0 16-7.163 16-16v-40c0-8.837-7.163-16-16-16H16c-8.837 0-16 7.163-16 16v40c0 8.837 7.163 16 16 16zm0 160h416c8.837 0 16-7.163 16-16v-40c0-8.837-7.163-16-16-16H16c-8.837 0-16 7.163-16 16v40c0 8.837 7.163 16 16 16z"/>
    </symbol>
    <symbol id="thumb" viewBox="0 0 512 512">
        <path fill="#107FC4"
              d="M296 32h192c13.255 0 24 10.745 24 24v160c0 13.255-10.745 24-24 24H296c-13.255 0-24-10.745-24-24V56c0-13.255 10.745-24 24-24zm-80 0H24C10.745 32 0 42.745 0 56v160c0 13.255 10.745 24 24 24h192c13.255 0 24-10.745 24-24V56c0-13.255-10.745-24-24-24zM0 296v160c0 13.255 10.745 24 24 24h192c13.255 0 24-10.745 24-24V296c0-13.255-10.745-24-24-24H24c-13.255 0-24 10.745-24 24zm296 184h192c13.255 0 24-10.745 24-24V296c0-13.255-10.745-24-24-24H296c-13.255 0-24 10.745-24 24v160c0 13.255 10.745 24 24 24z"/>
    </symbol>
    <symbol id="sort" viewBox="0 0 448 512">
        <path fill="#107FC4"
              d="M176 352h-48V48a16 16 0 0 0-16-16H80a16 16 0 0 0-16 16v304H16c-14.19 0-21.36 17.24-11.29 27.31l80 96a16 16 0 0 0 22.62 0l80-96C197.35 369.26 190.22 352 176 352zm240-64H288a16 16 0 0 0-16 16v32a16 16 0 0 0 16 16h56l-61.26 70.45A32 32 0 0 0 272 446.37V464a16 16 0 0 0 16 16h128a16 16 0 0 0 16-16v-32a16 16 0 0 0-16-16h-56l61.26-70.45A32 32 0 0 0 432 321.63V304a16 16 0 0 0-16-16zm31.06-85.38l-59.27-160A16 16 0 0 0 372.72 32h-41.44a16 16 0 0 0-15.07 10.62l-59.27 160A16 16 0 0 0 272 224h24.83a16 16 0 0 0 15.23-11.08l4.42-12.92h71l4.41 12.92A16 16 0 0 0 407.16 224H432a16 16 0 0 0 15.06-21.38zM335.61 144L352 96l16.39 48z"/>
    </symbol>
    <symbol id="clear" viewBox="0 0 448 512">
        <path fill="#D24922"
              d="M32 464a48 48 0 0 0 48 48h288a48 48 0 0 0 48-48V128H32zm272-256a16 16 0 0 1 32 0v224a16 16 0 0 1-32 0zm-96 0a16 16 0 0 1 32 0v224a16 16 0 0 1-32 0zm-96 0a16 16 0 0 1 32 0v224a16 16 0 0 1-32 0zM432 32H312l-9.4-18.7A24 24 0 0 0 281.1 0H166.8a23.72 23.72 0 0 0-21.4 13.3L136 32H16A16 16 0 0 0 0 48v32a16 16 0 0 0 16 16h416a16 16 0 0 0 16-16V48a16 16 0 0 0-16-16z"/>
    </symbol>
    <symbol id="success" viewBox="0 0 512 512">
        <path fill="#509804"
              d="M173.898 439.404l-166.4-166.4c-9.997-9.997-9.997-26.206 0-36.204l36.203-36.204c9.997-9.998 26.207-9.998 36.204 0L192 312.69 432.095 72.596c9.997-9.997 26.207-9.997 36.204 0l36.203 36.204c9.997 9.997 9.997 26.206 0 36.204l-294.4 294.401c-9.998 9.997-26.207 9.997-36.204-.001z"/>
    </symbol>
    <symbol id="delete" viewBox="0 0 512 512">
        <path fill="#D24922"
              d="M242.72 256l100.07-100.07c12.28-12.28 12.28-32.19 0-44.48l-22.24-22.24c-12.28-12.28-32.19-12.28-44.48 0L176 189.28 75.93 89.21c-12.28-12.28-32.19-12.28-44.48 0L9.21 111.45c-12.28 12.28-12.28 32.19 0 44.48L109.28 256 9.21 356.07c-12.28 12.28-12.28 32.19 0 44.48l22.24 22.24c12.28 12.28 32.2 12.28 44.48 0L176 322.72l100.07 100.07c12.28 12.28 32.2 12.28 44.48 0l22.24-22.24c12.28-12.28 12.28-32.19 0-44.48L242.72 256z"/>
    </symbol>
    <symbol id="loader" viewBox="0 0 128 128">
        <g>
            <circle cx="16" cy="64" r="16" fill="#595959" fill-opacity="1"/>
            <circle cx="16" cy="64" r="14.344" fill="#595959" fill-opacity="1" transform="rotate(45 64 64)"/>
            <circle cx="16" cy="64" r="12.531" fill="#595959" fill-opacity="1" transform="rotate(90 64 64)"/>
            <circle cx="16" cy="64" r="10.75" fill="#595959" fill-opacity="1" transform="rotate(135 64 64)"/>
            <circle cx="16" cy="64" r="10.063" fill="#595959" fill-opacity="1" transform="rotate(180 64 64)"/>
            <circle cx="16" cy="64" r="8.063" fill="#595959" fill-opacity="1" transform="rotate(225 64 64)"/>
            <circle cx="16" cy="64" r="6.438" fill="#595959" fill-opacity="1" transform="rotate(270 64 64)"/>
            <circle cx="16" cy="64" r="5.375" fill="#595959" fill-opacity="1" transform="rotate(315 64 64)"/>
            <animateTransform attributeName="transform" type="rotate"
                              values="0 64 64;315 64 64;270 64 64;225 64 64;180 64 64;135 64 64;90 64 64;45 64 64"
                              calcMode="discrete" dur="720ms" repeatCount="indefinite"/>
        </g>
    </symbol>
    <symbol id="info" viewBox="0 0 512 512">
        <path fill="#316EB8"
              d="M256 8C119.043 8 8 119.083 8 256c0 136.997 111.043 248 248 248s248-111.003 248-248C504 119.083 392.957 8 256 8zm0 110c23.196 0 42 18.804 42 42s-18.804 42-42 42-42-18.804-42-42 18.804-42 42-42zm56 254c0 6.627-5.373 12-12 12h-88c-6.627 0-12-5.373-12-12v-24c0-6.627 5.373-12 12-12h12v-64h-12c-6.627 0-12-5.373-12-12v-24c0-6.627 5.373-12 12-12h64c6.627 0 12 5.373 12 12v100h12c6.627 0 12 5.373 12 12v24z"/>
    </symbol>
    <symbol id="upload" viewBox="0 0 512 512">
        <path fill="#509804"
              d="M296 384h-80c-13.3 0-24-10.7-24-24V192h-87.7c-17.8 0-26.7-21.5-14.1-34.1L242.3 5.7c7.5-7.5 19.8-7.5 27.3 0l152.2 152.2c12.6 12.6 3.7 34.1-14.1 34.1H320v168c0 13.3-10.7 24-24 24zm216-8v112c0 13.3-10.7 24-24 24H24c-13.3 0-24-10.7-24-24V376c0-13.3 10.7-24 24-24h136v8c0 30.9 25.1 56 56 56h80c30.9 0 56-25.1 56-56v-8h136c13.3 0 24 10.7 24 24zm-124 88c0-11-9-20-20-20s-20 9-20 20 9 20 20 20 20-9 20-20zm64 0c0-11-9-20-20-20s-20 9-20 20 9 20 20 20 20-9 20-20z"/>
    </symbol>
    <symbol id="warn" viewBox="0 0 576 512">
        <path fill="#D24922"
              d="M569.517 440.013C587.975 472.007 564.806 512 527.94 512H48.054c-36.937 0-59.999-40.055-41.577-71.987L246.423 23.985c18.467-32.009 64.72-31.951 83.154 0l239.94 416.028zM288 354c-25.405 0-46 20.595-46 46s20.595 46 46 46 46-20.595 46-46-20.595-46-46-46zm-43.673-165.346l7.418 136c.347 6.364 5.609 11.346 11.982 11.346h48.546c6.373 0 11.635-4.982 11.982-11.346l7.418-136c.375-6.874-5.098-12.654-11.982-12.654h-63.383c-6.884 0-12.356 5.78-11.981 12.654z"/>
    </symbol>
    <symbol id="pause" viewBox="0 0 512 512">
        <path fill="#107FC4"
              d="M256 8C119 8 8 119 8 256s111 248 248 248 248-111 248-248S393 8 256 8zm-16 328c0 8.8-7.2 16-16 16h-48c-8.8 0-16-7.2-16-16V176c0-8.8 7.2-16 16-16h48c8.8 0 16 7.2 16 16v160zm112 0c0 8.8-7.2 16-16 16h-48c-8.8 0-16-7.2-16-16V176c0-8.8 7.2-16 16-16h48c8.8 0 16 7.2 16 16v160z"/>
    </symbol>

    <view id="icon-folder" viewBox="0 0 512 512"/>
    <view id="icon-cancel" viewBox="0 520 512 512"/>
    <view id="icon-list" viewBox="0 1040 512 512"/>
    <view id="icon-thumb" viewBox="0 1560 512 512"/>
    <view id="icon-sort" viewBox="0 2080 448 512"/>
    <view id="icon-clear" viewBox="0 2600 448 512"/>
    <view id="icon-success" viewBox="0 3120 512 512"/>
    <view id="icon-delete" viewBox="0 3640 512 512"/>
    <view id="icon-loader" viewBox="0 4160 128 128"/>
    <view id="icon-info" viewBox="0 4680 512 512"/>
    <view id="icon-upload" viewBox="0 5200 512 512"/>
    <view id="icon-warn" viewBox="0 5720 576 512"/>
    <view id="icon-pause" viewBox="0 6240 512 512"/>

    <use xlink:href="#folder" width="512" height="512" x="0" y="0"/>
    <use xlink:href="#cancel" width="512" height="512" x="0" y="520"/>
    <use xlink:href="#list" width="512" height="512" x="0" y="1040"/>
    <use xlink:href="#thumb" width="512" height="512" x="0" y="1560"/>
    <use xlink:href="#sort" width="448" height="512" x="0" y="2080"/>
    <use xlink:href="#clear" width="448" height="512" x="0" y="2600"/>
    <use xlink:href="#success" width="512" height="512" x="0" y="3120"/>
    <use xlink:href="#delete" width="512" height="512" x="0" y="3640"/>
    <use xlink:href="#loader" width="128" height="128" x="0" y="4160"/>
    <use xlink:href="#info" width="512" height="512" x="0" y="4680"/>
    <use xlink:href="#upload" width="512" height="512" x="0" y="5200"/>
    <use xlink:href="#warn" width="576" height="512" x="0" y="5720"/>
    <use xlink:href="#pause" width="512" height="512" x="0" y="6240"/>
</svg>
